<svg class="block w-36 h-auto fill-blue-500 ease-out-quart duration-500" fill="none" xmlns="http://www.w3.org/2000/svg" viewBox="0 0 141 50"><path fill-rule="evenodd" clip-rule="evenodd" d="M120.061 6.911c2.331 1.482 5.037 1.71 7 .344 1.967-1.366 2.68-3.974 2.083-6.66-.1-.453-.603-.737-.914-.521l-8.348 5.805c-.311.216-.214.782.179 1.032Zm-.481 1.044c2.753.266 5.021 1.748 5.722 4.03.7 2.283-.355 4.771-2.492 6.519-.361.294-.933.21-1.043-.15l-2.969-9.695c-.11-.36.317-.747.782-.704Zm4.079 11.328c1.106-2.524 3.223-4.215 5.62-4.171h-.003c2.398.044 4.449 1.813 5.461 4.374.173.434-.088.947-.465.94l-10.183-.187c-.38-.006-.616-.531-.43-.957ZM139.136 7.37c-2.385 1.394-5.097 1.525-7.01.087-1.913-1.438-2.529-4.067-1.835-6.731.12-.45.632-.716.933-.488l8.128 6.106c.302.225.186.791-.216 1.026Zm.226 1.125c-2.759.166-5.084 1.56-5.866 3.818-.782 2.257.179 4.78 2.249 6.606.349.31.924.244 1.05-.113l3.324-9.58c.123-.356-.289-.759-.754-.73h-.003Zm-79.845 10.17c2.812-.475 5.746.207 7.848 1.826 2.495 1.923 3.9 4.59 4.176 7.932.245 2.974.176 6.816-2.576 10.164-1.744 2.12-4.553 3.386-7.519 3.386h-.204c-2.96-.056-5.615-1.303-7.327-3.426v2.313c0 .241-.198.438-.44.435h-3.406a.44.44 0 0 1-.44-.438l.038-30.033a.434.434 0 0 1 .44-.434h3.286a.44.44 0 0 1 .44.438l-.012 11.305c1.197-1.817 3.217-3.049 5.696-3.467Zm-1.744 18.54c1.992.942 4.257.816 6.218-.34h-.003c2.19-1.295 3.157-3.342 3.236-6.85a8.295 8.295 0 0 1-.032-.379c-.028-.4-.066-.881-.153-1.344-.525-2.717-2.018-4.493-4.434-5.274a7.19 7.19 0 0 0-2.208-.37c-1.644 0-3.12.642-4.386 1.911-1.839 1.845-2.498 4.286-2.015 7.47.356 2.325 1.732 4.214 3.777 5.176ZM94.69 19.942v-.016a8.159 8.159 0 0 1-.015-.271.438.438 0 0 0-.44-.416h-3.35a.434.434 0 0 0-.44.434V23.5l.001.396c.003 2.053.007 4.169-.032 6.254-.022 1.207-.157 2.323-.402 3.311-.732 2.96-3.224 4.63-6.494 4.361-2.746-.23-4.088-1.86-4.223-5.124-.11-2.681-.104-5.401-.098-8.035v-.188l.002-1.174v-.014c.002-.793.003-1.587-.001-2.379v-1.225a.426.426 0 0 0-.13-.31.45.45 0 0 0-.31-.128h-3.28a.437.437 0 0 0-.311.122.421.421 0 0 0-.13.31c0 1.35-.009 2.694-.018 4.039-.022 3.22-.01 6.44.044 9.657.044 2.646.537 5.387 2.84 7.01 1.518 1.072 3.422 1.604 5.272 1.641h.17c2.982 0 5.577-1.428 6.966-3.842.031-.056.069-.113.11-.169v1.532c0 1.72 0 3.44-.013 5.159-.006 1.138-.145 1.27-1.326 1.27-2.114.002-4.232 0-6.347-.004l-3.993-.006a.44.44 0 0 0-.44.437v3.149a.433.433 0 0 0 .437.438l5.043.006 3.255.003h.007c1.09.001 2.18.003 3.273.003 3.06 0 4.37-1.3 4.373-4.349.016-8.285.022-16.57.029-24.854v-.02a12.6 12.6 0 0 0-.032-.779v-.053l.003-.003Zm18.041-1.132c3.532.688 5.64 2.98 6.265 6.81v-.003c.141.869.211 1.816.217 2.98.012 2.732.006 5.511 0 8.197l-.006 4.164c0 .241-.198.435-.44.432h-3.409a.438.438 0 0 1-.437-.438V39.68c-.009-1.138-.009-2.272-.009-3.41v-.113c0-2.673 0-5.437-.104-8.157-.119-3.12-1.703-4.98-4.458-5.23-3.076-.282-5.527 1.435-6.247 4.373-.238.985-.373 2.101-.395 3.311a301.337 301.337 0 0 0-.032 6.226v4.254c0 .241-.198.438-.44.435h-3.34a.44.44 0 0 1-.44-.438l.026-21.244c0-.24.198-.438.44-.435h3.321a.44.44 0 0 1 .311.128.426.426 0 0 1 .125.31v3.033c1.452-3.427 4.961-4.706 9.052-3.912Zm-93.411.354h-3.34a.433.433 0 0 0-.44.434v1.42a381.478 381.478 0 0 0-.028 3.28v.039c-.016 2.501-.033 5.085-.148 7.633-.132 2.876-1.914 5.083-4.537 5.621-1.854.381-3.497.14-4.622-.678-1.011-.738-1.615-1.936-1.784-3.558a20.016 20.016 0 0 1-.13-2.142c-.003-1.73-.002-3.46 0-5.19v-2.595l.007-3.864a.426.426 0 0 0-.129-.31.444.444 0 0 0-.31-.128H.514a.436.436 0 0 0-.44.4 5.66 5.66 0 0 1-.025.27l-.005.06c-.015.153-.03.31-.03.47L.01 23.25C0 26.195-.009 29.243.02 32.245c.01 1.157.135 2.267.37 3.295.786 3.442 3.077 5.703 6.281 6.2.666.103 1.307.156 1.904.156h.007c3.76-.153 6.334-2.495 6.9-4.877 0-.009.005-.016.011-.023a.094.094 0 0 0 .007-.008v3.839a.436.436 0 0 0 .437.438h3.361a.42.42 0 0 0 .311-.125.426.426 0 0 0 .13-.31l.024-21.235a.44.44 0 0 0-.44-.438l-.002.007Zm18.408-.729c.081-.012.33-.034.33-.034h.003c2.466-.206 5.812.847 7.324 3.658.892 1.594 1.062 3.464 1.112 4.915a.423.423 0 0 1-.126.325.424.424 0 0 1-.314.128h-3.582a.44.44 0 0 1-.437-.372c-.04-.29-.084-.575-.138-.857-.42-2.182-1.756-3.383-3.968-3.56-2.017-.163-3.799.997-4.417 2.888a13.049 13.049 0 0 0-.588 3.461c-.053 1.573-.053 3.16-.047 4.655.006.982.012 2.095-.006 3.174-.007.34.056.428.075.447.028.028.129.075.44.062a70.491 70.491 0 0 1 2.699-.012h.399c.433.006.864.006 1.307.006.11 0 .22.044.308.125a.46.46 0 0 1 .129.316v3.083a.434.434 0 0 1-.437.437l-13.62-.018a.43.43 0 0 1-.437-.435v-3.102c0-.243.198-.44.443-.44h.185c1.408.006 2.775.006 4.176.006l.016-14.122c-1.263-.006-2.504-.006-3.815-.006a.438.438 0 0 1-.436-.441v-3.13a.434.434 0 0 1 .443-.438c1.285.007 2.564.007 3.861.007 1.257.003 2.536.006 3.858.006.245 0 .443.194.443.434 0 .591 0 2.827-.003 3.424 1.009-3.098 2.982-4.38 4.82-4.59Z"></path></svg>