<?xml version="1.0" standalone="no"?>
<!DOCTYPE svg PUBLIC "-//W3C//DTD SVG 20010904//EN"
 "http://www.w3.org/TR/2001/REC-SVG-20010904/DTD/svg10.dtd">
<svg version="1.0" xmlns="http://www.w3.org/2000/svg"
 width="1672.000000pt" height="631.000000pt" viewBox="0 0 1672.000000 631.000000"
 preserveAspectRatio="xMidYMid meet">

<g transform="translate(0.000000,631.000000) scale(0.100000,-0.100000)"
fill="#1D3763" stroke="none">
<path d="M15 6290 c5 -8 460 -714 1012 -1567 552 -854 1003 -1555 1003 -1558
0 -4 -436 -689 -968 -1523 -533 -834 -986 -1544 -1007 -1577 -21 -33 -32 -55
-24 -49 291 229 3906 3121 3907 3127 2 4 -874 710 -1945 1569 -1071 858 -1957
1568 -1967 1577 -16 13 -18 13 -11 1z"/>
<path d="M5880 6250 l0 -50 55 0 55 0 0 50 0 50 -55 0 -55 0 0 -50z"/>
<path d="M5620 6035 l0 -85 85 0 85 0 0 85 0 85 -85 0 -85 0 0 -85z"/>
<path d="M5250 5760 l0 -140 140 0 140 0 0 140 0 140 -140 0 -140 0 0 -140z"/>
<path d="M4950 5650 l0 -90 85 0 85 0 0 90 0 90 -85 0 -85 0 0 -90z"/>
<path d="M5220 5420 l0 -50 55 0 55 0 0 50 0 50 -55 0 -55 0 0 -50z"/>
<path d="M4600 5160 l0 -230 225 0 225 0 0 230 0 230 -225 0 -225 0 0 -230z"/>
<path d="M4100 5050 l0 -141 138 3 137 3 3 138 3 137 -141 0 -140 0 0 -140z"/>
<path d="M3411 4647 c-63 -40 -116 -77 -117 -82 -3 -10 1020 -848 1041 -852 8
-2 639 962 653 999 2 4 -326 8 -730 8 l-733 0 -114 -73z"/>
<path d="M15920 4368 c-221 -31 -391 -165 -436 -344 l-6 -24 175 0 c174 0 175
0 190 24 43 65 204 101 343 77 138 -24 194 -70 194 -159 0 -119 -74 -161 -371
-207 -96 -15 -208 -38 -249 -52 -134 -43 -242 -120 -285 -203 -41 -79 -56
-237 -34 -356 31 -167 144 -279 334 -329 71 -18 272 -21 403 -5 278 35 455
174 519 410 16 57 18 112 18 455 0 455 0 456 -91 554 -59 64 -140 109 -239
135 -135 34 -326 44 -465 24z m470 -865 c0 -201 -33 -300 -126 -382 -71 -62
-139 -85 -259 -85 -119 -1 -168 19 -212 86 -39 58 -45 163 -14 234 37 83 97
113 349 173 68 17 151 43 185 60 34 16 65 30 70 30 4 1 7 -52 7 -116z"/>
<path d="M8810 4355 c-174 -35 -326 -142 -411 -289 -118 -206 -143 -576 -58
-852 67 -218 205 -350 436 -416 113 -33 324 -33 438 0 115 33 190 77 271 158
117 116 183 276 206 502 29 290 -52 571 -212 733 -78 79 -194 140 -312 164
-92 18 -267 18 -358 0z m326 -308 c149 -76 223 -256 210 -512 -10 -203 -46
-306 -140 -400 -62 -63 -126 -87 -224 -86 -92 0 -198 51 -246 118 -66 91 -98
229 -100 423 -1 152 19 242 74 332 42 70 89 108 170 138 77 29 186 23 256 -13z"/>
<path d="M10416 4345 c-97 -20 -159 -42 -250 -87 -137 -69 -208 -156 -253
-313 -15 -53 -17 -126 -21 -607 l-3 -548 185 0 185 0 3 543 3 542 24 47 c26
54 71 97 134 130 59 31 197 37 265 13 80 -29 136 -76 168 -142 l29 -58 3 -537
3 -538 164 0 165 0 0 523 c0 603 -1 597 79 677 68 68 140 93 251 88 97 -4 161
-29 216 -85 79 -79 84 -117 84 -651 0 -480 0 -479 64 -525 28 -20 45 -22 169
-25 l138 -4 -3 539 c-4 519 -5 541 -26 618 -47 169 -118 256 -267 326 -136 64
-218 82 -375 82 -106 1 -154 -4 -224 -21 -91 -23 -211 -79 -242 -113 -16 -18
-18 -18 -64 16 -107 78 -229 113 -420 120 -77 3 -138 0 -184 -10z"/>
<path d="M13085 4344 c-11 -2 -45 -9 -75 -15 -74 -14 -204 -79 -262 -129 -164
-143 -251 -433 -220 -737 31 -308 146 -500 362 -602 104 -49 192 -64 344 -58
209 8 337 58 462 182 65 65 127 162 149 233 l6 22 -153 0 c-169 0 -179 -3
-233 -68 -58 -69 -181 -106 -304 -91 -160 19 -256 130 -281 327 -6 41 -7 78
-4 83 3 5 227 9 511 9 l506 0 -8 113 c-25 404 -170 623 -465 707 -72 20 -286
36 -335 24z m249 -283 c112 -49 177 -158 188 -316 l3 -40 -339 -3 -339 -2 6
63 c20 213 159 336 365 322 41 -3 93 -13 116 -24z"/>
<path d="M6800 4325 c0 -4 123 -358 274 -788 151 -430 277 -799 281 -819 24
-129 -71 -213 -256 -225 l-89 -6 0 -138 0 -137 68 -8 c92 -10 284 9 354 36 73
27 145 103 191 203 32 68 637 1851 637 1877 0 9 -38 11 -153 8 -168 -3 -190
-10 -226 -69 -10 -17 -90 -280 -177 -584 -87 -305 -160 -553 -162 -550 -2 2
-81 273 -176 602 l-172 598 -197 3 c-108 1 -197 0 -197 -3z"/>
<path d="M13910 4321 c0 -9 476 -1381 517 -1488 l16 -43 192 0 193 0 15 43
c22 63 516 1463 523 1482 6 15 -8 16 -157 13 -186 -3 -217 -13 -250 -78 -10
-20 -88 -278 -174 -574 -85 -297 -157 -541 -159 -544 -3 -2 -8 7 -12 22 -3 14
-79 284 -168 599 l-163 572 -186 3 c-117 1 -187 -1 -187 -7z"/>
</g>
</svg>
