<?xml version="1.0" encoding="UTF-8"?>
<svg width="159px" height="85px" viewBox="0 0 159 85" version="1.1" xmlns="http://www.w3.org/2000/svg" xmlns:xlink="http://www.w3.org/1999/xlink">
    <!-- Generator: Sketch 64 (93537) - https://sketch.com -->
    <title>01-Electrons/logo</title>
    <desc>Created with Sketch.</desc>
    <g id="01-Electrons/logo" stroke="none" stroke-width="1" fill="none" fill-rule="evenodd">
        <g id="Group-31" fill="#020203">
            <g id="Group" transform="translate(51.000000, 75.000000)">
                <path d="M3.65341005,2.20537775 L2.33313589,2.20537775 L2.33313589,4.22796182 L3.65341005,4.22796182 C4.29370452,4.22796182 4.66686411,3.73572899 4.66686411,3.21542205 C4.66686411,2.69636284 4.29370452,2.20537775 3.65341005,2.20537775 M3.76002708,6.43209183 L2.33313589,6.43209183 L2.33313589,10 L0,10 L0,0 L3.76002708,0 C5.86630564,0 7,1.57402208 7,3.21542205 C7,4.85931749 5.86630564,6.43209183 3.76002708,6.43209183" id="Fill-1"></path>
                <path d="M16.5618367,3.79187722 L15.6802041,6.46141369 L17.3895918,6.46141369 L16.5618367,3.79187722 Z M18.477551,10 L18.0232653,8.51082413 L15.004898,8.51082413 L14.522449,10 L12,10 L15.5693878,0 L17.4306122,0 L21,10 L18.477551,10 Z" id="Fill-3"></path>
                <path d="M30.8933249,2.20537775 L29.4869812,2.20537775 L29.4869812,4.22796182 L30.8933249,4.22796182 C31.5756667,4.22796182 31.9733312,3.73572899 31.9733312,3.21542205 C31.9733312,2.69636284 31.5756667,2.20537775 30.8933249,2.20537775 L30.8933249,2.20537775 Z M32.1159855,10 L30.3252328,6.27737226 L29.4869812,6.27737226 L29.4869812,10 L27,10 L27,0 L31.0075746,0 C33.2521698,0 34.4596812,1.57402208 34.4596812,3.21542205 C34.4596812,4.5792002 33.607543,5.43577266 32.8115828,5.82818641 L35,10 L32.1159855,10 Z" id="Fill-5"></path>
                <polygon id="Fill-7" points="42 10 44 10 44 0 42 0"></polygon>
                <path d="M53.4686175,10 C52.0678187,10 50.924356,9.72329591 50,8.70237438 L51.4384578,7.15381312 C51.9137594,7.66550095 52.7485328,7.84526658 53.4805999,7.84526658 C54.367297,7.84526658 54.7912455,7.52806921 54.7912455,6.96116326 C54.7912455,6.72740659 54.7398924,6.53352966 54.610939,6.38137309 C54.4962504,6.25621204 54.3033909,6.16050064 54.0066841,6.11878029 L52.9025921,5.95312596 C52.0940659,5.82857844 51.4766873,5.53960366 51.0658624,5.08190687 C50.6419139,4.61377999 50.4365015,3.95116265 50.4365015,3.10877968 C50.4365015,1.31235045 51.6957939,0 53.7761656,0 C55.0862406,0 56.075644,0.331922204 56.8584936,1.17430517 L55.4457124,2.69403031 C54.8682752,2.07313332 54.1105315,2.1136266 53.7122595,2.1136266 C52.9288393,2.1136266 52.607597,2.59831892 52.607597,3.02472544 C52.607597,3.14927296 52.6469677,3.32903859 52.7879035,3.48119517 C52.9025921,3.60451561 53.0954516,3.72906313 53.4166938,3.77139702 L54.5213564,3.93643782 C55.3435768,4.05975827 55.9347082,4.33707589 56.3192859,4.75121173 C56.8077111,5.26289956 57,5.99545984 57,6.90594515 C57,8.908522 55.3949299,10 53.4686175,10" id="Fill-9"></path>
            </g>
            <path d="M8.50019678,41 C6.50212063,41 4.98601746,40.3808217 3.73388145,39.2314079 C1.92834605,37.5745644 2.00039356,35.3646795 2.00039356,32.9997149 C2.00039356,30.6353205 1.92834605,28.4260058 3.73388145,26.7685921 C4.98601746,25.6191783 6.50212063,25 8.50019678,25 C11.7504089,25 14.373932,26.6574137 15,30.1273207 L10.7150366,30.1273207 C10.4504483,29.2430246 9.92065067,28.4476713 8.52441965,28.4476713 C7.75425663,28.4476713 7.17663437,28.7350248 6.86297927,29.1107508 C6.47851886,29.5748494 6.21330949,30.1273207 6.21330949,32.9997149 C6.21330949,35.8726793 6.47851886,36.4251506 6.86297927,36.8898193 C7.17663437,37.2649752 7.75425663,37.5523287 8.52441965,37.5523287 C9.92065067,37.5523287 10.4504483,36.7569754 10.7150366,35.8726793 L15,35.8726793 C14.373932,39.3420162 11.7504089,41 8.50019678,41" id="Fill-10"></path>
            <polygon id="Fill-11" points="30.7553191 41 30.7553191 34.6630793 26.2440551 34.6630793 26.2440551 41 22 41 22 25 26.2440551 25 26.2440551 31.1577708 30.7553191 31.1577708 30.7553191 25 35 25 35 41"></polygon>
            <path d="M49.0967997,31.067546 L47.7250099,35.3371503 L50.3828526,35.3371503 L49.0967997,31.067546 Z M52.0765705,41 L51.3691031,38.6182055 L46.6740419,38.6182055 L45.9234295,41 L42,41 L47.552983,25 L50.4475701,25 L56,41 L52.0765705,41 Z" id="Fill-12"></path>
            <path d="M69.2624337,28.5279197 L66.9996068,28.5279197 L66.9996068,31.7642135 L69.2624337,31.7642135 C70.3599371,31.7642135 70.9998034,30.9774613 70.9998034,30.1460666 C70.9998034,29.3146719 70.3599371,28.5279197 69.2624337,28.5279197 M69.4458423,35.2921332 L66.9996068,35.2921332 L66.9996068,41 L63,41 L63,25 L69.4458423,25 C73.0574012,25 75,27.5167953 75,30.1460666 C75,32.7753379 73.0574012,35.2921332 69.4458423,35.2921332" id="Fill-13"></path>
            <polygon id="Fill-14" points="83 41 83 25 94 25 94 28.5058883 86.9766525 28.5058883 86.9766525 31.1803819 92.9773987 31.1803819 92.9773987 34.6856905 86.9766525 34.6856905 86.9766525 37.4946915 94 37.4946915 94 41"></polygon>
            <path d="M107.0968,31.067546 L105.724457,35.3371503 L108.382853,35.3371503 L107.0968,31.067546 Z M110.077124,41 L109.36855,38.6182055 L104.674042,38.6182055 L103.923429,41 L100,41 L105.552983,25 L108.447017,25 L114,41 L110.077124,41 Z" id="Fill-15"></path>
            <path d="M127.475467,41 C123.912904,41 121,38.7710384 121,35.2950773 L121,25 L125.212221,25 L125.212221,35.2059648 C125.212221,36.676608 126.07926,37.5234639 127.475467,37.5234639 C128.871674,37.5234639 129.786537,36.676608 129.786537,35.2059648 L129.786537,25 L134,25 L134,35.2950773 C134,38.7710384 131.038651,41 127.475467,41" id="Fill-16"></path>
            <polygon id="Fill-17" points="150.583445 41 148.000285 36.0788854 145.416555 41 141 41 145.902535 32.7979491 141.309364 25 145.704269 25 148.000285 29.5170127 150.296301 25 154.690636 25 150.098034 32.7979491 155 41"></polygon>
            <path d="M0.0710971705,13.6813089 C0.319381821,13.6813089 0.975919754,13.6813089 1.18865582,13.5225858 C1.57913481,13.2244354 1.63245769,12.9462031 2.44896426,9.68459897 L4.80905705,0.31869109 L3.17604391,0.31869109 L3.24714108,0 L6.67202509,0 L7.09805267,11.0564645 L7.13360125,11.0564645 L13.7884075,0 L17,0 L16.9294583,0.31869109 L15.4736326,0.31869109 L12.1376201,13.6813089 L13.6639875,13.6813089 L13.5928903,14 L8.76661439,14 L8.83715611,13.6813089 L10.3985166,13.6813089 L13.5395674,1.11355148 L13.5040188,1.0737151 L5.73165392,14 L5.53613671,14 L5.03956741,0.835319225 L5.00401882,0.835319225 L2.05848526,12.6075938 C2.02293668,12.7470212 1.98738809,12.9057443 1.98738809,13.0650898 C1.98738809,13.442913 2.28899562,13.6813089 3.30046396,13.6813089 L3.22936679,14 L0,14 L0.0710971705,13.6813089 Z" id="Fill-18"></path>
            <path d="M24.6612705,2.90248971 L24.622541,2.90248971 L20.7336066,8.91589261 L24.7793033,8.91589261 L24.6612705,2.90248971 Z M16.0590164,13.6965687 L16.529918,13.6965687 C16.8053279,13.6965687 17.1784836,13.6585656 17.5516393,13.0897061 L26.1145492,0 L26.3893443,0 L26.8221311,13.6965687 L28,13.6965687 L27.9409836,14 L23.1293033,14 L23.2079918,13.6965687 L24.9170082,13.6965687 L24.7793033,9.21932392 L20.497541,9.21932392 L18.0815574,12.9756967 C17.905123,13.2227171 17.8461066,13.3551342 17.8461066,13.4501421 C17.8461066,13.6021546 18.0428279,13.6965687 18.730123,13.6965687 L19.3387295,13.6965687 L19.260041,14 L16,14 L16.0590164,13.6965687 Z" id="Fill-19"></path>
            <path d="M33.2057514,13.6813089 L36.2008737,13.6813089 C39.8642745,13.6813089 41.3089027,5.64805264 41.3089027,3.77823226 C41.3089027,1.09363329 40.0754549,0.31869109 38.3143318,0.31869109 L36.51792,0.31869109 L33.2057514,13.6813089 Z M30.0700259,13.6813089 L31.4264325,13.6813089 L34.7386012,0.31869109 L33.1528184,0.31869109 L33.2233957,0 L38.4902235,0 C41.678882,0 43,2.86386271 43,5.34927974 C43,9.46612129 40.2348051,14 36.3061882,14 L30,14 L30.0700259,13.6813089 Z" id="Fill-20"></path>
            <path d="M45.0757757,13.6813089 L46.5435561,13.6813089 L50.127685,0.31869109 L48.4116945,0.31869109 L48.4874702,0 L58,0 L57.4087112,3.75831407 L57.1044153,3.75831407 C57.1801909,3.32073626 57.2183771,2.86386271 57.2183771,2.56571225 C57.2183771,0.576382714 55.8651551,0.31869109 54.6068019,0.31869109 L52.071599,0.31869109 L50.4707637,6.2636493 L51.2708831,6.2636493 C52.8150358,6.2636493 53.2153938,6.22443535 53.6921241,4.05708696 L53.9970167,4.05708696 L52.8341289,9.32607149 L52.5292363,9.32607149 C52.701074,8.65009781 52.853222,7.8950738 52.853222,7.59692335 C52.853222,7.13880491 52.624105,6.58234039 51.7667064,6.58234039 L50.3943914,6.58234039 L48.4874702,13.6813089 L50.7941527,13.6813089 C53.3490453,13.6813089 55.3317422,12.8659079 55.9027446,9.70451716 L56.2082339,9.70451716 L55.3120525,14 L45,14 L45.0757757,13.6813089 Z" id="Fill-21"></path>
            <path d="M57.0716503,13.6813089 C57.3193714,13.6813089 57.9764433,13.6813089 58.1891724,13.5225858 C58.5796386,13.2244354 58.6329598,12.9462031 59.4488842,9.68459897 L61.8088999,0.31869109 L60.177051,0.31869109 L60.2475904,0 L63.6723625,0 L64.0983762,11.0564645 L64.1339236,11.0564645 L70.787957,0 L74,0 L73.9294606,0.31869109 L72.4736825,0.31869109 L69.1377789,13.6813089 L70.663541,13.6813089 L70.5930016,14 L65.766328,14 L65.8368674,13.6813089 L67.3987323,13.6813089 L70.5396805,1.11355148 L70.504133,1.0737151 L62.7314667,14 L62.5365113,14 L62.0399582,0.835319225 L62.0044108,0.835319225 L59.058418,12.6075938 C59.023426,12.7470212 58.9878786,12.9057443 58.9878786,13.0650898 C58.9878786,13.442913 59.2894763,13.6813089 60.3009116,13.6813089 L60.2298167,14 L57,14 L57.0716503,13.6813089 Z" id="Fill-22"></path>
            <path d="M84.5854193,10.4998512 C85.6155263,8.1035084 86.283155,4.79387625 86.283155,3.44299383 C86.283155,0.703721029 84.642747,0.304826706 83.5547151,0.304826706 C81.304006,0.304826706 80.1586464,1.95994046 79.3005225,4.01394854 C78.4615078,5.99234531 77.8315004,9.0924091 77.8315004,10.4998512 C77.8315004,13.0867106 79.3005225,13.6957687 80.7504354,13.6957687 C82.4672804,13.6957687 83.6884797,12.5729109 84.5854193,10.4998512 M88,5.51664895 C88,8.94059111 84.8714606,14 80.8083603,14 C78.403583,14 76,12.3258346 76,8.48335105 C76,5.32672762 78.9380443,0 83.5744215,0 C85.4626524,0 88,1.67476079 88,5.51664895" id="Fill-23"></path>
            <polygon id="Fill-24" points="88.0788933 13.6813089 89.595124 13.6813089 93.297562 0.31869109 91.5249281 0.31869109 91.603205 0 97 0 96.919874 0.31869109 95.2859197 0.31869109 91.5840981 13.6813089 93.297562 13.6813089 93.2186687 14 88 14"></polygon>
            <path d="M98.318661,8.86416603 L98.6235192,8.92132347 C98.4710901,9.47265459 98.3748506,10.0436336 98.3748506,10.6140172 C98.3748506,12.3835162 99.865069,13.6957557 101.831703,13.6957557 C105.09787,13.6957557 105.460711,10.9754189 105.460711,10.3859828 C105.460711,6.8100706 99.902728,8.40750191 99.902728,4.33682062 C99.902728,3.1198435 100.533366,0 104.009347,0 C105.822954,0 106.452994,1.06574806 107.178676,1.06574806 C107.503261,1.06574806 107.637159,0.628136429 107.694544,0.399506677 L108,0.514416943 L106.911477,4.50829293 L106.605423,4.4326784 C106.701663,3.95696181 106.796707,3.48064983 106.796707,2.98647614 C106.796707,1.29378243 105.689056,0.30483967 103.818063,0.30483967 C102.137757,0.30483967 100.705521,1.44620226 100.705521,3.1198435 C100.705521,6.08667177 106.605423,4.90779961 106.605423,9.24462023 C106.605423,10.9950668 105.403923,14 101.659548,14 C99.7305728,14 98.8901206,12.8586374 98.0699924,12.8586374 C97.6491686,12.8586374 97.4770134,13.334354 97.2857298,13.6957557 L97,13.6385983 L98.318661,8.86416603 Z" id="Fill-25"></path>
            <path d="M109.076372,13.6813089 L110.544153,13.6813089 L114.128282,0.31869109 L112.412291,0.31869109 L112.488663,0 L122,0 L121.409308,3.75831407 L121.103819,3.75831407 C121.181384,3.32073626 121.218974,2.86386271 121.218974,2.56571225 C121.218974,0.576382714 119.865752,0.31869109 118.607995,0.31869109 L116.072196,0.31869109 L114.470764,6.2636493 L115.272076,6.2636493 C116.816229,6.2636493 117.216587,6.22443535 117.692124,4.05708696 L117.997613,4.05708696 L116.834726,9.32607149 L116.529236,9.32607149 C116.701074,8.65009781 116.853222,7.8950738 116.853222,7.59692335 C116.853222,7.13880491 116.625298,6.58234039 115.766706,6.58234039 L114.394988,6.58234039 L112.488663,13.6813089 L114.794749,13.6813089 C117.349045,13.6813089 119.331742,12.8659079 119.903938,9.70451716 L120.208234,9.70451716 L119.313246,14 L109,14 L109.076372,13.6813089 Z" id="Fill-26"></path>
            <path d="M120.076326,13.6813089 L121.555366,13.6813089 L125.164922,0.31869109 L123.43647,0.31869109 L123.513397,0 L128.775079,0 L128.697551,0.31869109 L127.104322,0.31869109 L123.494165,13.6813089 L125.894526,13.6813089 C129.043722,13.6813089 130.656183,12.2104748 131.712125,8.76960697 L132,8.84927974 L130.444634,14 L120,14 L120.076326,13.6813089 Z" id="Fill-27"></path>
            <path d="M133.07633,13.6813089 L134.554843,13.6813089 L138.165181,0.31869109 L136.436642,0.31869109 L136.513573,0 L141.775518,0 L141.697987,0.31869109 L140.104077,0.31869109 L136.49434,13.6813089 L138.894821,13.6813089 C142.044175,13.6813089 143.656716,12.2104748 144.712712,8.76960697 L145,8.84927974 L143.445157,14 L133,14 L133.07633,13.6813089 Z" id="Fill-28"></path>
            <path d="M146.076372,13.6813089 L147.544153,13.6813089 L151.128282,0.31869109 L149.412291,0.31869109 L149.488663,0 L159,0 L158.409308,3.75831407 L158.103819,3.75831407 C158.181384,3.32073626 158.218974,2.86386271 158.218974,2.56571225 C158.218974,0.576382714 156.865155,0.31869109 155.607995,0.31869109 L153.072196,0.31869109 L151.470764,6.2636493 L152.272076,6.2636493 C153.816229,6.2636493 154.216587,6.22443535 154.692124,4.05708696 L154.997613,4.05708696 L153.834726,9.32607149 L153.529236,9.32607149 C153.701074,8.65009781 153.853222,7.8950738 153.853222,7.59692335 C153.853222,7.13880491 153.625298,6.58234039 152.766706,6.58234039 L151.394988,6.58234039 L149.488663,13.6813089 L151.794749,13.6813089 C154.349045,13.6813089 156.331742,12.8659079 156.903938,9.70451716 L157.208234,9.70451716 L156.313246,14 L146,14 L146.076372,13.6813089 Z" id="Fill-29"></path>
            <polygon id="Stroke-30" fill-rule="nonzero" points="94 57 94 58 66 58 66 57"></polygon>
        </g>
    </g>
</svg>